<svg xmlns="http://www.w3.org/2000/svg" viewBox="0 0 48 48"><g><circle cx="24" cy="24" r="24" fill="#5865F2"/><path d="M33.5 19.5c-1.1-.5-2.3-.9-3.5-1.1-.2.3-.4.7-.6 1-.9-.1-1.8-.2-2.7-.2s-1.8.1-2.7.2c-.2-.3-.4-.7-.6-1-1.2.2-2.4.6-3.5 1.1-.2.1-.3.3-.3.5 0 4.2 2.7 8.2 7.1 8.2s7.1-4 7.1-8.2c0-.2-.1-.4-.3-.5z" fill="#fff"/><path d="M20.5 22.5c.6 0 1.1.5 1.1 1.1s-.5 1.1-1.1 1.1-1.1-.5-1.1-1.1.5-1.1 1.1-1.1zm7 0c.6 0 1.1.5 1.1 1.1s-.5 1.1-1.1 1.1-1.1-.5-1.1-1.1.5-1.1 1.1-1.1z" fill="#23272A"/></g></svg>
