<svg xmlns="http://www.w3.org/2000/svg" viewBox="0 0 48 48"><g><path fill="#4285F4" d="M44.5 20H24v8.5h11.7C34.7 33.9 29.8 37 24 37c-7.2 0-13-5.8-13-13s5.8-13 13-13c3.1 0 5.9 1.1 8.1 2.9l6.4-6.4C34.3 4.5 29.4 2.5 24 2.5 12.7 2.5 3.5 11.7 3.5 23S12.7 43.5 24 43.5c11 0 20.5-8.5 20.5-20.5 0-1.4-.1-2.5-.3-3.5z"/><path fill="#34A853" d="M6.3 14.7l7 5.1C15.2 16.2 19.2 13 24 13c3.1 0 5.9 1.1 8.1 2.9l6.4-6.4C34.3 4.5 29.4 2.5 24 2.5c-7.2 0-13 5.8-13 13 0 2.2.5 4.3 1.3 6.2z"/><path fill="#FBBC05" d="M24 43.5c5.8 0 10.7-1.9 14.3-5.2l-6.6-5.4C29.8 37 24 37 24 37c-5.8 0-10.7-3.1-13.7-7.7l-7 5.1C7.3 40.2 15.2 43.5 24 43.5z"/><path fill="#EA4335" d="M44.5 20H24v8.5h11.7c-1.6 4.1-6.1 7-11.7 7-5.8 0-10.7-3.1-13.7-7.7l-7 5.1C7.3 40.2 15.2 43.5 24 43.5c11 0 20.5-8.5 20.5-20.5 0-1.4-.1-2.5-.3-3.5z"/></g></svg>
