<svg xmlns="http://www.w3.org/2000/svg" viewBox="0 0 48 48"><g><rect width="48" height="48" rx="8" fill="#F3F3F3"/><path d="M14 24C14 18.4772 18.4772 14 24 14C29.5228 14 34 18.4772 34 24C34 29.5228 29.5228 34 24 34C18.4772 34 14 29.5228 14 24Z" fill="#F35325"/><path d="M34 24C34 29.5228 29.5228 34 24 34V14C29.5228 14 34 18.4772 34 24Z" fill="#81BC06"/><path d="M24 34C18.4772 34 14 29.5228 14 24H24V34Z" fill="#05A6F0"/><path d="M24 14V24H14C14 18.4772 18.4772 14 24 14Z" fill="#FFBA08"/></g></svg>
